PathFileType	4	(X/Y/Z)	k10_0-1010.trc
DataRate	CameraRate	NumFrames	NumMarkers	Units	OrigDataRate	OrigDataStartFrame	OrigNumFrames
120	120	5	27	m	120	883	1010
Frame#	Time	RHip			RKnee			RAnkle			RBigToe			RSmallToe			RHeel			LHip			LKnee			LAnkle			LBigToe			LSmallToe			LHeel			Nose			REye			LEye			RShoulder			RElbow			RWrist			RThumb			RIndex			RPinky			LShoulder			LElbow			LWrist			LThumb			LIndex			LPinky			
		X1	Y1	Z1	X2	Y2	Z2	X3	Y3	Z3	X4	Y4	Z4	X5	Y5	Z5	X6	Y6	Z6	X7	Y7	Z7	X8	Y8	Z8	X9	Y9	Z9	X10	Y10	Z10	X11	Y11	Z11	X12	Y12	Z12	X13	Y13	Z13	X14	Y14	Z14	X15	Y15	Z15	X16	Y16	Z16	X17	Y17	Z17	X18	Y18	Z18	X19	Y19	Z19	X20	Y20	Z20	X21	Y21	Z21	X22	Y22	Z22	X23	Y23	Z23	X24	Y24	Z24	X25	Y25	Z25	X26	Y26	Z26	X27	Y27	Z27	
883	7.358333333333333	0.09191315196697923	0.13160437083610738	0.9372008846534567	0.46251688215491266	-0.004716850489940701	1.08173701732369	0.6799135579436404	-0.20165899925963363	0.8409247076764986	0.84990973243902	-0.26440075292640963	0.9294131370407029	0.8351158555562868	-0.2727472928293399	0.9016094959579621	0.7158109113110591	-0.1932702390885758	0.7840113452198182	0.19247164023508884	0.29869371926197186	0.8837001197173855	0.24878596299434524	0.2069445908942846	0.4791778445703783	0.1221238811049091	0.2300121943535457	0.08839637125527212	0.23588765376927093	0.1018345007162465	0.011265470495364915	0.24009699326610784	0.1598248495185631	0.009849568108228127	0.08591592985412384	0.24696475243717445	0.04267908833370903	0.13512695391489976	0.15740025496574264	1.512738399704724	0.10978245238401835	0.1595005560046413	1.544842228956147	0.15993532819635134	0.1684134168394768	1.5458423555067722	-0.05340680965255814	0.28224186303163745	1.3647053186245517	-0.15275484150660046	0.3073218157297901	1.0932579327961933	-0.2030095685156793	0.25296902934759424	0.8465039323310285	-0.1772417477026247	0.21483101274078314	0.7828238283795534	-0.21392847631872425	0.21030418498012204	0.7573970762619106	-0.22445391049003238	0.26448992588056647	0.7549222821133872	0.3138229330747876	0.38386261780440617	1.3935795647973221	0.38891999867684357	0.10739516327547718	1.335471200267646	0.20269139148983478	0.005615126674190507	1.4309849942830954	0.11852638965322405	0.012519444644311999	1.4414775856724489	0.11602540389429788	-0.006737850627659659	1.4699551275562277	0.13993038790359313	-0.041230325823977634	1.458196934076034
884	7.366666666666666	0.08609328829914355	0.13577906775739723	0.9365286917935389	0.4614865087415038	-0.011674776115885941	1.0670687475993619	0.676445040629622	-0.19390358272818442	0.8118476530581795	0.8488061096357795	-0.2592869269942563	0.8922448659823649	0.8322140242169157	-0.2686017158770275	0.8654313087652147	0.7098700559896469	-0.18402650928294328	0.7544834679072835	0.1881228368269427	0.3017422383958601	0.8840739144822867	0.24409624013943865	0.21126326352869487	0.4778810648679711	0.12013325100916727	0.22993048728761498	0.08600731445852913	0.23745638942185276	0.1029047984127929	0.011201915527085868	0.2403060884987633	0.15987518184284943	0.009662085063959805	0.08417027738038901	0.2459720542069212	0.03964807713320115	0.13626029265587525	0.16013263949690565	1.5151150902097472	0.11078514940076009	0.16185379677782033	1.5473184081719125	0.16176670349186423	0.1721403639269686	1.5479824380616787	-0.05514261879034797	0.27647350039716073	1.365688073175037	-0.15746700813720657	0.2953919725855285	1.0952708367206063	-0.2076811247918765	0.23367029872737052	0.8509221760785926	-0.18218137934834605	0.1930469785965104	0.7873064010798434	-0.21949554106558694	0.18720768937567484	0.7627735158996194	-0.23054879360244446	0.24224272308823522	0.7593770164663668	0.31095898854488174	0.389754100659226	1.3919042805244786	0.39722299821902674	0.12087839848961807	1.3303992333925718	0.2183541934724844	0.00576989600674944	1.4269164428377081	0.1336504292715199	0.01092891347922958	1.4390476712232736	0.1320637608278324	-0.009446537917257344	1.4675240080472816	0.15902578536310868	-0.04584319851347676	1.4553373674619936
885	7.375	0.08054858606163928	0.13932178376623025	0.9355605233950604	0.4577175357014043	-0.020594893121404268	1.0518672378984775	0.6718085100684275	-0.18575615813013682	0.7829598001838953	0.8465346349287094	-0.25328833851724314	0.8550409372515873	0.8278066482584068	-0.26369804154562765	0.8292602824674341	0.7027094765289713	-0.17448116254026033	0.7252026445737754	0.1835439287880918	0.30483130203600095	0.8842089514166896	0.23940286877983785	0.21533017048639116	0.4766237836080649	0.11823361523797024	0.22968621240074313	0.08382454152168649	0.23905869123243792	0.10402349582520198	0.011285672352563928	0.24059429262163717	0.16003793256453608	0.009589716064291876	0.08241629060052343	0.2448065558228334	0.03688287135489576	0.137221487481744	0.16270088071544023	1.517541283318395	0.111643313902883	0.164181495653749	1.5497498188873038	0.16316905536748758	0.17555692510414622	1.5501282210092875	-0.05653568880034466	0.2708689513145912	1.366718545336542	-0.16166683214378363	0.28347311386207225	1.0977094651637491	-0.21178074736007635	0.2145181310540296	0.8559704413117704	-0.18666436709879447	0.17133312298828077	0.7924192997193922	-0.22462368065405147	0.1643110823042525	0.76885205034823	-0.23616051141620747	0.220162830304807	0.7645733317489192	0.3079988723976603	0.3954785576198968	1.3902796010797052	0.40551143564253533	0.1352533521991928	1.3247994330219597	0.23461145560954347	0.006822614193965996	1.4222099907310246	0.1499102155450165	0.009642000082721848	1.4361233671425904	0.14915296941439407	-0.012018884647365747	1.4644546301249037	0.17908600960174806	-0.050233728015767476	1.4517463779592688
886	7.383333333333334	0.07527985427725081	0.14219560032044343	0.9344478806734124	0.4524343537772548	-0.030152851318598954	1.0361446854721812	0.666040869373257	-0.17722608326296696	0.7543914826217842	0.8431391616858118	-0.24633463461134045	0.8179568566771434	0.8220031451129752	-0.25793013367041595	0.793254647223435	0.6943150884406358	-0.1647139968723359	0.6963135634699842	0.17875690613667936	0.30789755266916735	0.8841312813539323	0.23476261478507562	0.21914426073398638	0.47543866827677	0.11645302972762478	0.2293301416139305	0.08188147474869725	0.24068044337380778	0.10521677773472543	0.011515486720351954	0.24095002982813962	0.16033017537554306	0.009648226627828809	0.08068114982851009	0.2435144065814821	0.034425694773494865	0.13799922109775148	0.1650905180608752	1.5199941407464457	0.11236943086538215	0.16646648675205397	1.5521277645459925	0.16412905081434004	0.17865767730563528	1.5522700419302	-0.05761559697218667	0.2654646476932329	1.3677866879517855	-0.1653365082749694	0.2715999849308627	1.100536079724032	-0.21529878089499893	0.1954940532034701	0.8615272279418178	-0.1905482644008344	0.14975228176097996	0.7981319609761233	-0.22916693730037663	0.14165296941122243	0.7755522959547635	-0.24127443663686524	0.19818918257941914	0.7703954439129448	0.30489069176448946	0.40103805552777094	1.3887088775332017	0.41372054405121417	0.15044138452590572	1.3187217383919425	0.25149638991829687	0.008980806332062193	1.4168836773740097	0.16740092306505217	0.008861985870577897	1.4326894513659023	0.16734128402204435	-0.014279035190821061	1.4607027115797908	0.20008549036027318	-0.054046672940220634	1.447373905961057
887	7.391666666666667	0.07022372454657676	0.1444897220121596	0.9332767302192775	0.4467540818700767	-0.03913968940779403	1.0199385984640625	0.6592119366782401	-0.1683273458455483	0.7262560983030282	0.8386664636753233	-0.238375434326124	0.7811563643181489	0.8149273842777589	-0.2512415861647681	0.7575759406851758	0.6847389162440919	-0.15479260816371293	0.6679401239610456	0.1738168123327166	0.3108524323945707	0.8839206454395117	0.23024268264458922	0.222704512849179	0.4743626566465042	0.11482594695282974	0.22891651943822094	0.08020567011228907	0.24230060740580267	0.10650021731130341	0.011884134967431025	0.24136223199260648	0.1607635889145859	0.00984743926895064	0.07900734333251931	0.2421584703391346	0.03231260295185457	0.1386040260331473	0.16729946468639806	1.522453955984779	0.1129903050617976	0.16869171599879176	1.5544492728541677	0.16468024689006144	0.181465279625587	1.5544049688926578	-0.0584118458048276	0.2602912231851745	1.3688715898198573	-0.168482245575353	0.25979714341059	1.1036940607409167	-0.2182313500447567	0.1765970369991118	0.8674688303778995	-0.1937433831325237	0.12836026809630643	0.8043883849637212	-0.23299502096560673	0.11928101832778881	0.782771209418697	-0.2458618278066953	0.17627880300474513	0.7767107600859311	0.3015814061436571	0.40642978980341443	1.3871921414761799	0.42169638686607025	0.1662819142773537	1.3122335444101294	0.26900087056887595	0.012349500892192217	1.4109529406629682	0.18616535425441924	0.008750492131555423	1.4287253379888238	0.18662897466912473	-0.01606424922212901	1.4562256881302555	0.22195354956373542	-0.05695544162797774	1.442171983574788
